<mxfile host="app.diagrams.net" agent="Mozilla/5.0 (Windows NT 10.0; Win64; x64) AppleWebKit/537.36 (KHTML, like Gecko) Chrome/137.0.0.0 Safari/537.36 Edg/137.0.0.0" version="27.1.4">
  <diagram name="第 1 页" id="t4F4Vu2oPgWj3v99Ycq9">
    <mxGraphModel dx="1152" dy="781" grid="1" gridSize="10" guides="1" tooltips="1" connect="1" arrows="1" fold="1" page="1" pageScale="1" pageWidth="827" pageHeight="1169" math="0" shadow="0">
      <root>
        <mxCell id="0" />
        <mxCell id="1" parent="0" />
        <mxCell id="uDHZvXaZPhhTfV0Wawmv-3" value="" style="edgeStyle=orthogonalEdgeStyle;rounded=0;orthogonalLoop=1;jettySize=auto;html=1;" edge="1" parent="1" source="uDHZvXaZPhhTfV0Wawmv-1" target="uDHZvXaZPhhTfV0Wawmv-2">
          <mxGeometry relative="1" as="geometry" />
        </mxCell>
        <mxCell id="uDHZvXaZPhhTfV0Wawmv-1" value="开始" style="ellipse;whiteSpace=wrap;html=1;aspect=fixed;" vertex="1" parent="1">
          <mxGeometry x="360" y="40" width="80" height="80" as="geometry" />
        </mxCell>
        <mxCell id="uDHZvXaZPhhTfV0Wawmv-5" value="" style="edgeStyle=orthogonalEdgeStyle;rounded=0;orthogonalLoop=1;jettySize=auto;html=1;" edge="1" parent="1" source="uDHZvXaZPhhTfV0Wawmv-2" target="uDHZvXaZPhhTfV0Wawmv-4">
          <mxGeometry relative="1" as="geometry" />
        </mxCell>
        <mxCell id="uDHZvXaZPhhTfV0Wawmv-2" value="获取二维码" style="whiteSpace=wrap;html=1;" vertex="1" parent="1">
          <mxGeometry x="340" y="160" width="120" height="60" as="geometry" />
        </mxCell>
        <mxCell id="uDHZvXaZPhhTfV0Wawmv-9" value="" style="edgeStyle=orthogonalEdgeStyle;rounded=0;orthogonalLoop=1;jettySize=auto;html=1;" edge="1" parent="1" source="uDHZvXaZPhhTfV0Wawmv-4" target="uDHZvXaZPhhTfV0Wawmv-8">
          <mxGeometry relative="1" as="geometry" />
        </mxCell>
        <mxCell id="uDHZvXaZPhhTfV0Wawmv-4" value="检查用户是否扫码" style="whiteSpace=wrap;html=1;" vertex="1" parent="1">
          <mxGeometry x="340" y="267" width="120" height="60" as="geometry" />
        </mxCell>
        <mxCell id="uDHZvXaZPhhTfV0Wawmv-11" value="" style="edgeStyle=orthogonalEdgeStyle;rounded=0;orthogonalLoop=1;jettySize=auto;html=1;" edge="1" parent="1" source="uDHZvXaZPhhTfV0Wawmv-8" target="uDHZvXaZPhhTfV0Wawmv-10">
          <mxGeometry relative="1" as="geometry" />
        </mxCell>
        <mxCell id="uDHZvXaZPhhTfV0Wawmv-8" value="用户扫码，获取openid，并根据此查询用户是否存在" style="whiteSpace=wrap;html=1;" vertex="1" parent="1">
          <mxGeometry x="340" y="367" width="120" height="60" as="geometry" />
        </mxCell>
        <mxCell id="uDHZvXaZPhhTfV0Wawmv-13" value="" style="edgeStyle=orthogonalEdgeStyle;rounded=0;orthogonalLoop=1;jettySize=auto;html=1;" edge="1" parent="1" source="uDHZvXaZPhhTfV0Wawmv-10" target="uDHZvXaZPhhTfV0Wawmv-12">
          <mxGeometry relative="1" as="geometry" />
        </mxCell>
        <mxCell id="uDHZvXaZPhhTfV0Wawmv-14" value="存在" style="edgeLabel;html=1;align=center;verticalAlign=middle;resizable=0;points=[];" vertex="1" connectable="0" parent="uDHZvXaZPhhTfV0Wawmv-13">
          <mxGeometry x="-0.1381" y="2" relative="1" as="geometry">
            <mxPoint as="offset" />
          </mxGeometry>
        </mxCell>
        <mxCell id="uDHZvXaZPhhTfV0Wawmv-19" value="" style="edgeStyle=orthogonalEdgeStyle;rounded=0;orthogonalLoop=1;jettySize=auto;html=1;" edge="1" parent="1" source="uDHZvXaZPhhTfV0Wawmv-10" target="uDHZvXaZPhhTfV0Wawmv-18">
          <mxGeometry relative="1" as="geometry" />
        </mxCell>
        <mxCell id="uDHZvXaZPhhTfV0Wawmv-20" value="不存在" style="edgeLabel;html=1;align=center;verticalAlign=middle;resizable=0;points=[];" vertex="1" connectable="0" parent="uDHZvXaZPhhTfV0Wawmv-19">
          <mxGeometry x="-0.2286" y="3" relative="1" as="geometry">
            <mxPoint as="offset" />
          </mxGeometry>
        </mxCell>
        <mxCell id="uDHZvXaZPhhTfV0Wawmv-10" value="用户是否存在" style="rhombus;whiteSpace=wrap;html=1;" vertex="1" parent="1">
          <mxGeometry x="360" y="467" width="80" height="80" as="geometry" />
        </mxCell>
        <mxCell id="uDHZvXaZPhhTfV0Wawmv-23" style="edgeStyle=orthogonalEdgeStyle;rounded=0;orthogonalLoop=1;jettySize=auto;html=1;entryX=0;entryY=0.5;entryDx=0;entryDy=0;" edge="1" parent="1" source="uDHZvXaZPhhTfV0Wawmv-12" target="uDHZvXaZPhhTfV0Wawmv-21">
          <mxGeometry relative="1" as="geometry">
            <Array as="points">
              <mxPoint x="240" y="690" />
            </Array>
          </mxGeometry>
        </mxCell>
        <mxCell id="uDHZvXaZPhhTfV0Wawmv-12" value="登陆成功，生成token" style="whiteSpace=wrap;html=1;" vertex="1" parent="1">
          <mxGeometry x="180" y="477" width="120" height="60" as="geometry" />
        </mxCell>
        <mxCell id="uDHZvXaZPhhTfV0Wawmv-22" value="" style="edgeStyle=orthogonalEdgeStyle;rounded=0;orthogonalLoop=1;jettySize=auto;html=1;entryX=1;entryY=0.5;entryDx=0;entryDy=0;" edge="1" parent="1" source="uDHZvXaZPhhTfV0Wawmv-18" target="uDHZvXaZPhhTfV0Wawmv-21">
          <mxGeometry relative="1" as="geometry">
            <mxPoint x="586" y="585" as="sourcePoint" />
            <mxPoint x="500" y="728" as="targetPoint" />
            <Array as="points">
              <mxPoint x="560" y="690" />
            </Array>
          </mxGeometry>
        </mxCell>
        <mxCell id="uDHZvXaZPhhTfV0Wawmv-18" value="跳转到绑定或者注册界面，输入手机号完成绑定" style="whiteSpace=wrap;html=1;" vertex="1" parent="1">
          <mxGeometry x="500" y="477" width="120" height="60" as="geometry" />
        </mxCell>
        <mxCell id="uDHZvXaZPhhTfV0Wawmv-21" value="完成" style="ellipse;whiteSpace=wrap;html=1;" vertex="1" parent="1">
          <mxGeometry x="374" y="650" width="80" height="80" as="geometry" />
        </mxCell>
      </root>
    </mxGraphModel>
  </diagram>
</mxfile>
